:SAMPLES-PER-SECOND 30
:FULLY-SPECIFIED
:DEGREES
363
root  -23.8932 39.2407 -26.6263 3.51383 -60.2305 -10.4008
RightUpLeg  17.0331 -8.6006 2.25744
RightLeg  3.54508 -17.1899 3.18928
RightFoot  -13.8378 0.00905428 4.75578
RightToes  5.47152e-009 0 -3.6325e-017
Spine  4.02664 1.1082 11.0824
Spine1  10.1432 2.52082 -4.19127
HEad  -4.77998 10.4989 -4.11851
LeftShoulder1  -0.3234 4.35556 -31.8228
LeftArm  -2.63178 18.1206 -37.3213
LeftForeArm  29.2205 -10.9008 -7.58109
LeftHand  0.0272204 3.57919 -3.07673
RightShoulder  -0.664396 -5.42591 27.8271
RightArm  19.0954 5.42735 43.8934
RightForeArm  6.55614 12.8416 7.20234
RightHand  -0.222494 2.04227 -3.66461
LeftUpLeg  -11.647 1.44631 -2.93351
LeftLeg  -8.2315 28.9858 -3.97853
LeftFoot  -3.03324 0.191308 -2.35795
LeftToes  -4.29285e-010 1.49941e-010 2.15559e-012
364
root  -25.049 38.9923 -26.3771 3.2225 -58.7762 -10.6761
RightUpLeg  19.2379 -8.93791 2.53907
RightLeg  4.4289 -17.8007 3.77307
RightFoot  -15.4708 0.0897687 5.38183
RightToes  5.47152e-009 0 -3.6325e-017
Spine  3.7941 1.25763 10.8228
Spine1  10.4484 3.06777 -5.52072
HEad  -4.76704 12.9788 -1.87319
LeftShoulder1  -0.306363 4.33902 -30.5711
LeftArm  -3.90927 18.509 -36.8846
LeftForeArm  31.3937 -10.1391 -7.41074
LeftHand  0.0698062 3.26643 -4.88064
RightShoulder  -0.814047 -5.75549 29.5463
RightArm  15.4774 5.00399 44.5809
RightForeArm  10.3296 8.73539 7.72733
RightHand  -0.205476 1.06493 -3.79488
LeftUpLeg  -11.7415 2.9143 -2.90221
LeftLeg  -4.98429 31.0534 -4.23019
LeftFoot  -2.02177 0.0321997 -0.247323
LeftToes  -4.29285e-010 1.49941e-010 2.15559e-012
365
root  -26.2448 38.8039 -26.0104 1.94232 -58.673 -9.6333
RightUpLeg  21.2261 -10.4651 0.913257
RightLeg  6.14651 -15.5476 4.00626
RightFoot  -16.9641 0.242375 7.24602
RightToes  5.47152e-009 0 -3.6325e-017
Spine  3.35126 1.95544 9.98907
Spine1  10.8537 4.19581 -6.95792
HEad  -4.30522 14.8857 -1.15903
LeftShoulder1  -0.37285 4.51983 -30.4778
LeftArm  -4.04216 18.908 -35.4917
LeftForeArm  30.4482 -10.1815 -7.31617
LeftHand  -0.0074206 4.58627 -3.15306
RightShoulder  -0.820523 -5.74033 30.0423
RightArm  13.0761 2.9176 46.1493
RightForeArm  12.7548 6.2842 7.20294
RightHand  -0.157535 0.457926 -3.19799
LeftUpLeg  -12.8528 4.35201 -3.17409
LeftLeg  1.4981 30.4542 -2.55235
LeftFoot  -0.110416 -0.764563 7.41583
LeftToes  -4.29285e-010 1.49941e-010 2.15559e-012
366
root  -27.4432 38.6779 -25.5696 -0.81947 -58.9156 -6.99701
RightUpLeg  23.0413 -16.1471 -3.51571
RightLeg  9.81634 -7.83419 2.71374
RightFoot  -18.0883 0.51101 10.6552
RightToes  5.47152e-009 0 -3.6325e-017
Spine  2.73163 2.8423 7.22859
Spine1  11.5661 5.00997 -6.89598
HEad  -3.7763 17.5276 -1.50187
LeftShoulder1  -0.527114 4.89909 -31.659
LeftArm  -3.3871 18.696 -33.1001
LeftForeArm  28.1259 -10.0814 -7.49243
LeftHand  -0.0269912 5.19072 -1.73486
RightShoulder  -0.746571 -5.56277 29.573
RightArm  11.8996 0.501142 48.1601
RightForeArm  13.8032 4.74574 6.7986
RightHand  -0.177265 0.625511 -3.50678
LeftUpLeg  -14.0204 5.01825 -4.53264
LeftLeg  7.85597 30.7453 0.344165
LeftFoot  1.99696 -1.85839 15.8723
LeftToes  -4.29285e-010 1.49941e-010 2.15559e-012
367
root  -28.5621 38.5869 -25.069 -4.22701 -58.0682 -3.08295
RightUpLeg  22.5313 -24.3115 -9.66199
RightLeg  17.9769 1.96307 0.580559
RightFoot  -18.3544 0.819029 15.374
RightToes  5.47152e-009 0 -3.6325e-017
Spine  2.80439 3.14792 5.10265
Spine1  10.6834 5.62324 -8.75676
HEad  -2.97882 20.0601 -0.920487
LeftShoulder1  -0.5869 5.04862 -31.8454
LeftArm  -4.37193 17.977 -31.3195
LeftForeArm  27.1104 -9.11291 -7.34808
LeftHand  -0.0493262 6.19187 -1.48513
RightShoulder  -0.868159 -5.83415 30.6556
RightArm  12.2608 -1.71126 49.1315
RightForeArm  15.1804 4.28699 6.98076
RightHand  -0.16556 0.310727 -3.40875
LeftUpLeg  -14.9192 7.13634 -6.94067
LeftLeg  13.9933 27.218 2.94608
LeftFoot  -0.0207978 -1.68138 16.8172
LeftToes  -4.29285e-010 1.49941e-010 2.15559e-012
368
root  -29.5053 38.5078 -24.5247 -6.43097 -55.8928 -1.16974
RightUpLeg  19.7253 -23.2816 -11.3842
RightLeg  28.2323 2.02511 0.861125
RightFoot  -15.113 0.578945 22.2361
RightToes  5.47152e-009 0 -3.6325e-017
Spine  4.12457 2.87804 4.28952
Spine1  9.53415 5.47976 -10.4616
HEad  -2.13284 22.6247 -1.28726
LeftShoulder1  -0.586252 5.03577 -32.1223
LeftArm  -5.58797 16.4855 -30.8685
LeftForeArm  27.4665 -7.69878 -7.10372
LeftHand  -0.0489002 6.11446 -1.83301
RightShoulder  -0.824841 -5.75609 29.9701
RightArm  13.0213 -4.84222 50.6662
RightForeArm  16.9249 5.72896 7.25527
RightHand  -0.12519 -0.193259 -2.80772
LeftUpLeg  -14.2692 9.78742 -8.95181
LeftLeg  17.4306 22.7917 4.37027
LeftFoot  -2.05108 -1.40252 17.2856
LeftToes  -4.29285e-010 1.49941e-010 2.15559e-012
369
root  -30.3117 38.5283 -23.9476 -7.37956 -53.9869 -0.346924
RightUpLeg  13.8021 -20.1485 -11.4291
RightLeg  40.5865 1.70873 1.32389
RightFoot  -5.76656 -1.09747 24.4237
RightToes  5.47152e-009 0 -3.6325e-017
Spine  5.30309 2.71346 4.6569
Spine1  8.58057 5.5039 -12.2004
HEad  -2.07389 24.8229 -2.64073
LeftShoulder1  -0.564685 4.97109 -32.3366
LeftArm  -6.25624 14.6365 -31.5348
LeftForeArm  28.0598 -7.05371 -6.85978
LeftHand  -0.0173624 4.87446 -3.03557
RightShoulder  -0.661259 -5.36853 28.767
RightArm  14.9919 -7.56696 51.5459
RightForeArm  17.8691 8.57359 7.61979
RightHand  -0.132131 -0.482076 -3.09287
LeftUpLeg  -12.9148 9.07786 -9.77566
LeftLeg  18.9487 22.513 5.1421
LeftFoot  -3.7524 -1.17139 17.8304
LeftToes  -4.29285e-010 1.49941e-010 2.15559e-012
370
root  -31.0974 38.5759 -23.423 -8.87816 -52.3139 1.3194
RightUpLeg  6.51898 -15.2409 -11.0457
RightLeg  52.3247 2.54066 3.21059
RightFoot  5.37169 -2.53413 17.0113
RightToes  5.47152e-009 0 -3.6325e-017
Spine  6.29118 2.74306 3.59892
Spine1  7.94778 5.47101 -12.773
HEad  -2.72712 27.293 -4.11834
LeftShoulder1  -0.566326 4.97752 -32.2817
LeftArm  -6.31708 12.3895 -33.1157
LeftForeArm  27.8393 -6.63241 -6.98626
LeftHand  -0.00470361 4.41119 -2.44684
RightShoulder  -0.5468 -5.06335 28.2663
RightArm  20.0179 -8.34476 51.2235
RightForeArm  16.2092 11.4103 7.94453
RightHand  -0.109904 -0.0191484 -2.3361
LeftUpLeg  -11.2429 7.44303 -10.7128
LeftLeg  19.5461 22.8455 5.17984
LeftFoot  -5.06848 -0.92273 17.2442
LeftToes  -4.29285e-010 1.49941e-010 2.15559e-012
371
root  -31.784 38.5581 -22.9534 -9.9058 -49.7407 2.48633
RightUpLeg  0.822952 -11.4989 -11.1657
RightLeg  60.4146 3.54292 6.21916
RightFoot  6.2844 -2.32421 15.1883
RightToes  5.47152e-009 0 -3.6325e-017
Spine  6.25203 2.63654 1.84685
Spine1  9.16896 4.98749 -12.1933
HEad  -3.95728 28.9004 -5.4527
LeftShoulder1  -0.556262 4.94189 -32.5271
LeftArm  -6.02578 8.71813 -35.2714
LeftForeArm  27.5464 -5.97344 -7.36629
LeftHand  -0.0195766 4.70174 -1.4584
RightShoulder  -0.518868 -4.98703 28.1371
RightArm  24.6224 -7.17302 50.4354
RightForeArm  12.9062 13.3891 7.90816
RightHand  -0.19541 0.647028 -3.86366
LeftUpLeg  -9.88367 5.65802 -11.8485
LeftLeg  20.42 22.5091 5.48146
LeftFoot  -6.46708 -0.667167 16.4814
LeftToes  -4.29285e-010 1.49941e-010 2.15559e-012
372
root  -32.475 38.6282 -22.4617 -9.8289 -46.0123 2.01404
RightUpLeg  -3.41838 -8.73062 -10.7851
RightLeg  64.8282 3.59654 7.71157
RightFoot  3.70554 -2.03987 15.5513
RightToes  5.47152e-009 0 -3.6325e-017
Spine  7.0359 1.85032 1.07681
Spine1  8.89483 3.83334 -11.8101
HEad  -3.79892 29.8789 -5.70697
LeftShoulder1  -0.511019 4.83698 -32.192
LeftArm  -5.67107 6.11464 -37.6485
LeftForeArm  28.0949 -6.56866 -7.7597
LeftHand  -0.0132177 3.797 -0.540945
RightShoulder  -0.590399 -5.17278 28.6143
RightArm  25.3094 -5.83972 49.3131
RightForeArm  12.4313 13.8519 7.7319
RightHand  -0.206963 0.586929 -4.09597
LeftUpLeg  -7.86582 4.74372 -12.1656
LeftLeg  20.4678 20.0974 5.09561
LeftFoot  -7.69637 -0.473165 16.2232
LeftToes  -4.29285e-010 1.49941e-010 2.15559e-012
373
root  -33.1658 38.775 -21.9258 -9.10343 -41.9869 1.16132
RightUpLeg  -7.58917 -5.84482 -10.0755
RightLeg  66.095 3.05577 6.92403
RightFoot  4.07471 -1.6678 12.488
RightToes  5.47152e-009 0 -3.6325e-017
Spine  6.68691 1.27957 -0.0259269
Spine1  9.2231 2.68329 -9.8739
HEad  -3.11575 30.3595 -5.69478
LeftShoulder1  -0.488186 4.77737 -32.1789
LeftArm  -4.26458 3.39426 -40.4019
LeftForeArm  28.277 -8.07828 -8.22234
LeftHand  -0.0181781 3.4307 -0.0307909
RightShoulder  -0.555035 -5.10222 27.9423
RightArm  21.9784 -5.11696 48.7025
RightForeArm  12.385 13.5134 7.31596
RightHand  -0.241719 0.740998 -4.70517
LeftUpLeg  -5.75551 4.1019 -12.0086
LeftLeg  19.6015 16.8097 4.06968
LeftFoot  -8.62075 -0.33557 16.2169
LeftToes  -4.29285e-010 1.49941e-010 2.15559e-012
374
root  -33.8563 38.9349 -21.3927 -8.41189 -37.5959 0.245789
RightUpLeg  -10.9494 -3.09644 -9.39915
RightLeg  64.5829 2.27341 4.65744
RightFoot  3.80807 -1.08917 8.35776
RightToes  5.47152e-009 0 -3.6325e-017
Spine  6.69535 0.753362 -0.909841
Spine1  9.14716 1.67804 -8.12448
HEad  -2.46856 29.8773 -4.57482
LeftShoulder1  -0.443368 4.67423 -31.7513
LeftArm  0.51647 1.24096 -43.2852
LeftForeArm  26.4711 -11.5244 -8.3707
LeftHand  -0.0261878 2.97828 0.528969
RightShoulder  -0.540681 -5.08126 27.4762
RightArm  16.7485 -4.89891 47.9823
RightForeArm  12.5669 12.9542 6.54561
RightHand  -0.195377 1.20154 -3.59759
LeftUpLeg  -3.57307 3.9851 -11.4741
LeftLeg  18.6472 12.7532 2.85543
LeftFoot  -9.35947 -0.228455 16.3557
LeftToes  -4.29285e-010 1.49941e-010 2.15559e-012
375
root  -34.5 39.0852 -20.8363 -7.55353 -32.9029 -0.739441
RightUpLeg  -13.5118 -1.18554 -9.06729
RightLeg  60.4164 1.46877 2.35039
RightFoot  2.57486 -0.758639 6.35944
RightToes  5.47152e-009 0 -3.6325e-017
Spine  6.69817 0.167416 -1.40945
Spine1  8.91224 0.687989 -6.48234
HEad  -2.239 29.2656 -3.98636
LeftShoulder1  -0.407783 4.57308 -31.9463
LeftArm  9.69528 -0.713744 -45.2517
LeftForeArm  20.8204 -16.2685 -7.18805
LeftHand  -0.0319486 1.84711 0.727138
RightShoulder  -0.528421 -5.05868 27.1691
RightArm  13.1986 -4.89346 46.8632
RightForeArm  10.3657 12.9224 5.80091
RightHand  -0.223287 0.350032 -4.55025
LeftUpLeg  -1.74386 3.72233 -10.8914
LeftLeg  17.883 8.57736 2.17496
LeftFoot  -9.99419 -0.134377 16.4504
LeftToes  -4.29285e-010 1.49941e-010 2.15559e-012
